<?xml version="1.0" encoding="utf-8"?>
<!-- Generator: Adobe Illustrator 15.0.0, SVG Export Plug-In . SVG Version: 6.00 Build 0)  -->
<!DOCTYPE svg PUBLIC "-//W3C//DTD SVG 1.1//EN" "http://www.w3.org/Graphics/SVG/1.1/DTD/svg11.dtd" [
	<!ENTITY st0 "opacity:0.3;fill-rule:evenodd;clip-rule:evenodd;fill:#BB5937;">
]>
<svg version="1.1" id="Layer_1" xmlns="http://www.w3.org/2000/svg" xmlns:xlink="http://www.w3.org/1999/xlink" x="0px" y="0px"
	 width="112px" height="112px" viewBox="0 0 112 112" style="enable-background:new 0 0 112 112;" xml:space="preserve">
<path style="&st0;" d="M56,3.126c-29.203,0-52.875,23.676-52.875,52.875c0,29.204,23.672,52.872,52.875,52.872
	s52.875-23.668,52.875-52.872C108.875,26.802,85.203,3.126,56,3.126z M83.398,36.255c0.418,0,0.785,0.148,1.113,0.359l-28.23,22.2
	L27.82,36.544c0.305-0.168,0.641-0.289,1.008-0.289H83.398z M85.516,74.518c0,1.168-0.953,2.109-2.117,2.109h-54.57
	c-1.164,0-2.113-0.941-2.113-2.109V38.369c0-0.754,0.418-1.383,1.012-1.758c3.535,3.703,24.77,25.895,26.445,27.829
	c1.828,2.109,4.781,0.141,4.781,0.141l25.68-27.879c0.52,0.383,0.883,0.973,0.883,1.668V74.518z"/>
</svg>
