<?xml version="1.0" encoding="utf-8"?>
<!-- Generator: Adobe Illustrator 15.0.0, SVG Export Plug-In . SVG Version: 6.00 Build 0)  -->
<!DOCTYPE svg PUBLIC "-//W3C//DTD SVG 1.1//EN" "http://www.w3.org/Graphics/SVG/1.1/DTD/svg11.dtd" [
	<!ENTITY st0 "opacity:0.3;fill-rule:evenodd;clip-rule:evenodd;fill:#BB5937;">
]>
<svg version="1.1" id="Layer_1" xmlns="http://www.w3.org/2000/svg" xmlns:xlink="http://www.w3.org/1999/xlink" x="0px" y="0px"
	 width="112px" height="112px" viewBox="0 0 112 112" style="enable-background:new 0 0 112 112;" xml:space="preserve">
<path style="&st0;" d="M55.957,3.129c-29.203,0-52.875,23.672-52.875,52.875s23.672,52.871,52.875,52.871
	c29.199,0,52.875-23.668,52.875-52.871S85.156,3.129,55.957,3.129z M85.855,58.574c-6.215,25.184-47.926,35.871-67.113,9.723
	c7.348,7.012,20.145,7.629,28.266-0.758c-4.758,0.695-8.223-3.973-2.379-6.492c-5.258,0.578-8.18-2.223-9.379-4.598
	c1.234-1.289,2.59-1.887,5.223-2.059c-5.758-1.363-7.883-4.176-8.531-7.594c1.594-0.383,3.594-0.707,4.688-0.562
	c-5.047-2.637-6.793-6.602-6.516-9.582c9.008,3.344,14.75,6.031,19.551,8.605c1.707,0.914,3.621,2.559,5.773,4.641
	c2.738-7.242,6.125-14.715,11.926-18.418c-0.098,0.844-0.547,1.621-1.141,2.262c1.648-1.492,3.777-2.52,5.953-2.82
	c-0.25,1.633-2.598,2.551-4.016,3.086c1.074-0.336,6.785-2.883,7.402-1.434c0.738,1.648-3.938,2.414-4.73,2.699
	c-0.594,0.199-1.188,0.418-1.773,0.656c7.234-0.723,14.145,5.242,16.16,12.645c0.141,0.539,0.285,1.125,0.414,1.75
	c2.648,0.984,7.438-0.047,8.984-0.996c-1.121,2.641-4.02,4.582-8.301,4.938c2.062,0.859,5.953,1.328,8.637,0.871
	C93.254,56.961,90.516,58.613,85.855,58.574z"/>
</svg>
