<?xml version="1.0" encoding="utf-8"?>
<!-- Generator: Adobe Illustrator 15.0.0, SVG Export Plug-In . SVG Version: 6.00 Build 0)  -->
<!DOCTYPE svg PUBLIC "-//W3C//DTD SVG 1.1//EN" "http://www.w3.org/Graphics/SVG/1.1/DTD/svg11.dtd" [
	<!ENTITY st0 "opacity:0.3;fill:#BB5937;">
]>
<svg version="1.1" id="Layer_1" xmlns="http://www.w3.org/2000/svg" xmlns:xlink="http://www.w3.org/1999/xlink" x="0px" y="0px"
	 width="225px" height="225px" viewBox="0 0 225 225" style="enable-background:new 0 0 225 225;" xml:space="preserve">
<path style="&st0;" d="M170.357,119.258c-5.754-2.434-12.391,0.25-14.828,6c-2.434,5.75,0.25,12.387,6.004,14.82
	c5.746,2.445,12.383-0.242,14.82-5.992C178.795,128.328,176.104,121.699,170.357,119.258z M113.65,99.223
	c0-11.754-9.527-21.285-21.289-21.285c-11.754,0-21.285,9.531-21.285,21.285c0,11.758,9.531,21.289,21.285,21.289
	C104.123,120.512,113.65,110.98,113.65,99.223z M124.229,157.965c-4.246-1.801-9.152,0.184-10.949,4.43
	c-1.801,4.246,0.184,9.152,4.43,10.953c4.25,1.793,9.152-0.184,10.953-4.441C130.459,164.664,128.479,159.758,124.229,157.965z
	 M112.49,0C50.361,0-0.01,50.371-0.01,112.5S50.361,225,112.49,225s112.5-50.371,112.5-112.5S174.619,0,112.49,0z M80.588,138.602
	c-2.711-0.805-5.305-1.887-7.746-3.207l-9.535,7.418l-14.535-14.527l7.418-9.535c-1.32-2.449-2.398-5.043-3.211-7.754L40.99,109.5
	V88.949l11.988-1.496c0.812-2.715,1.891-5.305,3.211-7.75l-7.418-9.539l14.535-14.531l9.535,7.422
	c2.441-1.324,5.035-2.402,7.746-3.215l1.5-11.988h20.547l1.5,11.988c2.711,0.812,5.305,1.891,7.754,3.215l9.535-7.422l14.527,14.531
	l-7.418,9.539c1.324,2.445,2.406,5.035,3.211,7.75l11.992,1.496V109.5l-11.992,1.496c-0.805,2.711-1.887,5.305-3.211,7.754
	l7.418,9.535l-14.527,14.527l-9.535-7.418c-2.449,1.32-5.043,2.402-7.754,3.207l-1.5,11.992H82.088L80.588,138.602z M137.002,167.43
	l4.102,2.375l-3.148,7.426l-4.562-1.293c-0.707,0.855-1.492,1.629-2.344,2.305l1.219,4.578l-7.473,3.023l-2.312-4.141
	c-1.082,0.109-2.184,0.098-3.285-0.023l-2.379,4.102l-7.422-3.145l1.293-4.562c-0.859-0.703-1.629-1.492-2.309-2.348l-4.582,1.223
	l-3.023-7.469l4.137-2.312c-0.105-1.09-0.098-2.188,0.027-3.285l-4.102-2.383l3.148-7.43l4.555,1.305
	c0.711-0.863,1.496-1.629,2.348-2.312l-1.215-4.578l7.469-3.023l2.312,4.137c1.086-0.105,2.188-0.098,3.289,0.027l2.379-4.105
	l7.422,3.148l-1.293,4.559c0.855,0.703,1.629,1.496,2.309,2.348l4.578-1.223l3.027,7.473l-4.141,2.312
	C137.131,165.227,137.119,166.324,137.002,167.43z M188.939,145.344l-6.172-1.75c-0.961,1.152-2.023,2.199-3.18,3.121l1.652,6.207
	l-10.121,4.094l-3.125-5.605c-1.469,0.141-2.965,0.129-4.457-0.035l-3.219,5.555l-10.051-4.266l1.754-6.168
	c-1.16-0.957-2.207-2.031-3.129-3.184l-6.199,1.656l-4.098-10.117l5.605-3.129c-0.137-1.469-0.129-2.965,0.039-4.457l-5.555-3.219
	L142.943,114l6.176,1.75c0.957-1.156,2.023-2.203,3.176-3.125l-1.652-6.203l10.121-4.094l3.129,5.605
	c1.469-0.141,2.961-0.133,4.457,0.035l3.215-5.555l10.051,4.258l-1.75,6.176c1.156,0.957,2.203,2.027,3.125,3.176l6.199-1.652
	l4.098,10.121l-5.602,3.125c0.137,1.469,0.125,2.961-0.035,4.457l5.547,3.215L188.939,145.344z"/>
</svg>
