<?xml version="1.0" encoding="utf-8"?>
<!-- Generator: Adobe Illustrator 15.0.0, SVG Export Plug-In . SVG Version: 6.00 Build 0)  -->
<!DOCTYPE svg PUBLIC "-//W3C//DTD SVG 1.1//EN" "http://www.w3.org/Graphics/SVG/1.1/DTD/svg11.dtd" [
	<!ENTITY st0 "fill:#BB5937;">
	<!ENTITY st1 "opacity:0.3;">
	<!ENTITY st2 "opacity:0.3;fill:#BB5937;">
]>
<svg version="1.1" id="Layer_1" xmlns="http://www.w3.org/2000/svg" xmlns:xlink="http://www.w3.org/1999/xlink" x="0px" y="0px"
	 width="225px" height="225px" viewBox="0 0 225 225" style="enable-background:new 0 0 225 225;" xml:space="preserve">
<path style="&st2;" d="M112.5,0.023C50.367,0.023,0,50.395,0,112.523s50.367,112.5,112.5,112.5c62.129,0,112.5-50.371,112.5-112.5
	S174.629,0.023,112.5,0.023z M183.82,136.668c-2.328,7.16-12.883,10.176-17.215,16.133c-4.379,6.016-4.02,16.977-10.035,21.352
	c-5.957,4.332-16.242,0.637-23.398,2.957c-6.902,2.242-13.02,11.355-20.672,11.355s-13.77-9.113-20.668-11.355
	c-7.156-2.32-17.445,1.375-23.402-2.957c-6.016-4.375-5.656-15.336-10.035-21.352c-4.332-5.957-14.887-8.973-17.215-16.133
	c-2.238-6.898,4.449-15.523,4.449-23.168c0-7.652-6.688-16.27-4.449-23.172c2.328-7.156,12.883-10.18,17.215-16.133
	c4.379-6.016,4.02-16.973,10.035-21.352c5.957-4.336,16.246-0.633,23.402-2.961c6.898-2.238,13.016-11.355,20.668-11.355
	s13.77,9.117,20.672,11.355c7.156,2.328,17.441-1.375,23.398,2.961c6.016,4.379,5.656,15.336,10.035,21.352
	c4.332,5.953,14.887,8.977,17.215,16.133c2.238,6.902-4.453,15.52-4.453,23.172C179.367,121.145,186.059,129.77,183.82,136.668z
	 M112.5,54.445c-32.074,0-58.078,26.004-58.078,58.078c0,32.078,26.004,58.078,58.078,58.078s58.078-26,58.078-58.078
	C170.578,80.449,144.574,54.445,112.5,54.445z M112.5,166.547c-29.836,0-54.02-24.188-54.02-54.023s24.184-54.016,54.02-54.016
	s54.016,24.18,54.016,54.016S142.336,166.547,112.5,166.547z M145.984,110.289c-1.461-0.555-3.223-0.902-5.273-1.047
	c1.434-0.27,2.688-0.629,3.754-1.094c1.066-0.457,1.941-1.051,2.629-1.77c0.691-0.715,1.203-1.574,1.539-2.582
	c0.344-1.004,0.508-1.773,0.508-3.148c0-1.535-0.203-2.867-0.598-3.996c-0.402-1.129-0.957-2.094-1.66-2.895
	c-0.711-0.797-1.539-1.445-2.496-1.938c-0.949-0.492-1.988-0.875-3.102-1.148c-1.121-0.277-2.285-0.473-3.496-0.574
	c-1.207-0.102-2.422-0.152-3.629-0.152H72.555v3.445h8.828v33.656h-8.828v3.477h62.16c1.578,0,3.105-0.062,4.582-0.184
	c1.477-0.125,2.867-0.344,4.168-0.66c1.305-0.32,2.496-0.75,3.566-1.293c1.082-0.543,2.004-1.25,2.77-2.121
	c0.773-0.875,1.371-1.914,1.801-3.125c0.43-1.207,0.648-2.637,0.648-4.273c0-1.602-0.219-1.777-0.648-3.055
	c-0.43-1.285-1.105-2.387-2.031-3.312C148.648,111.578,147.453,110.84,145.984,110.289z M85.227,93.391h47.672
	c1.953,0,3.613,0.098,5,0.293c1.383,0.195,2.551,0.461,3.492,0.801c0.938,0.34,1.688,0.742,2.23,1.211
	c0.543,0.473,0.957,0.98,1.246,1.527c0.285,0.539,0.469,1.113,0.551,1.703c0.086,0.594,0.125,1.191,0.125,1.785
	c0,1.008-0.137,1.539-0.418,2.438c-0.273,0.902-0.859,1.695-1.75,2.371c-0.895,0.676-2.172,1.215-3.832,1.617
	c-1.66,0.398-3.875,0.598-6.645,0.598H85.227V93.391z M147.5,122.586c-0.469,1.047-1.234,1.906-2.312,2.566
	c-1.074,0.668-2.488,1.152-4.246,1.453c-1.75,0.293-3.91,0.441-6.473,0.441H85.227v-15.93h48.75c2.484,0,4.617,0.168,6.41,0.512
	c1.797,0.336,3.27,0.863,4.418,1.582s2,1.637,2.555,2.766c0.551,1.133,0.828,1.227,0.828,2.828
	C148.188,120.281,147.953,121.543,147.5,122.586z"/>
<g style="&st1;">
	<g>
		<path style="&st0;" d="M72.555,93.391h8.828v33.656h-8.828v3.477h62.16c1.578,0,3.105-0.062,4.582-0.184
			c1.477-0.125,2.867-0.344,4.168-0.66c1.305-0.32,2.496-0.75,3.566-1.293c1.082-0.543,2.004-1.25,2.77-2.121
			c0.773-0.875,1.371-1.914,1.801-3.125c0.43-1.207,0.648-2.637,0.648-4.273c0-1.602-0.219-1.777-0.648-3.055
			c-0.43-1.285-1.105-2.387-2.031-3.312c-0.922-0.922-2.117-1.66-3.586-2.211c-1.461-0.555-3.223-0.902-5.273-1.047
			c1.434-0.27,2.688-0.629,3.754-1.094c1.066-0.457,1.941-1.051,2.629-1.77c0.691-0.715,1.203-1.574,1.539-2.582
			c0.344-1.004,0.508-1.773,0.508-3.148c0-1.535-0.203-2.867-0.598-3.996c-0.402-1.129-0.957-2.094-1.66-2.895
			c-0.711-0.797-1.539-1.445-2.496-1.938c-0.949-0.492-1.988-0.875-3.102-1.148c-1.121-0.277-2.285-0.473-3.496-0.574
			c-1.207-0.102-2.422-0.152-3.629-0.152H72.555V93.391z M147.5,122.586c-0.469,1.047-1.234,1.906-2.312,2.566
			c-1.074,0.668-2.488,1.152-4.246,1.453c-1.75,0.293-3.91,0.441-6.473,0.441H85.227v-15.93h48.75c2.484,0,4.617,0.168,6.41,0.512
			c1.797,0.336,3.27,0.863,4.418,1.582s2,1.637,2.555,2.766c0.551,1.133,0.828,1.227,0.828,2.828
			C148.188,120.281,147.953,121.543,147.5,122.586z M145.125,103.148c-0.273,0.902-0.859,1.695-1.75,2.371
			c-0.895,0.676-2.172,1.215-3.832,1.617c-1.66,0.398-3.875,0.598-6.645,0.598H85.227V93.391h47.672c1.953,0,3.613,0.098,5,0.293
			c1.383,0.195,2.551,0.461,3.492,0.801c0.938,0.34,1.688,0.742,2.23,1.211c0.543,0.473,0.957,0.98,1.246,1.527
			c0.285,0.539,0.469,1.113,0.551,1.703c0.086,0.594,0.125,1.191,0.125,1.785C145.543,101.719,145.406,102.25,145.125,103.148z"/>
	</g>
</g>
</svg>
