<?xml version="1.0" encoding="utf-8"?>
<!-- Generator: Adobe Illustrator 15.0.0, SVG Export Plug-In . SVG Version: 6.00 Build 0)  -->
<!DOCTYPE svg PUBLIC "-//W3C//DTD SVG 1.1//EN" "http://www.w3.org/Graphics/SVG/1.1/DTD/svg11.dtd" [
	<!ENTITY st0 "opacity:0.3;fill-rule:evenodd;clip-rule:evenodd;fill:#BB5937;">
]>
<svg version="1.1" id="Layer_1" xmlns="http://www.w3.org/2000/svg" xmlns:xlink="http://www.w3.org/1999/xlink" x="0px" y="0px"
	 width="225px" height="225px" viewBox="0 0 225 225" style="enable-background:new 0 0 225 225;" xml:space="preserve">
<path style="&st0;" d="M69.717,121.781h75.047c0.02,0,0.039,0.016,0.059,0.016l8.211-47.812L64.299,84.82L69.717,121.781z M112.49,0
	C50.361,0-0.01,50.371-0.01,112.5S50.361,225,112.49,225s112.5-50.371,112.5-112.5S174.619,0,112.49,0z M77.119,172.121
	c-5.473,0-9.91-4.438-9.91-9.91c0-5.477,4.438-9.914,9.91-9.914s9.914,4.438,9.914,9.914
	C87.033,167.684,82.592,172.121,77.119,172.121z M136.736,172.121c-5.473,0-9.914-4.438-9.914-9.91c0-5.477,4.441-9.914,9.914-9.914
	s9.91,4.438,9.91,9.914C146.646,167.684,142.209,172.121,136.736,172.121z M177.025,71.055l-14.812,1.809l-12.551,73.121
	c-0.32,1.875-3.07,2.969-4.949,2.648c-0.117-0.02-0.242-0.098-0.359-0.133H67.842c-1.902,0-3.445-2.527-3.445-4.43
	s1.543-4.43,3.445-4.43h73.918l1.547-9H66.295c-0.016,0-0.027-0.012-0.039-0.012c-1.852,0.145-4.277-0.887-4.582-2.645
	l-6.945-47.383c-0.191-1.105,0.539-2.191,1.523-3c0.215-0.227,0.449-0.387,0.703-0.531c0.18-0.105,0.355-0.164,0.539-0.246
	c0.109-0.031,0.191-0.121,0.301-0.137l0.113-0.012c0.203-0.066,0.406-0.188,0.602-0.219c0.344-0.059,0.734-0.023,1.117,0.008
	l116.328-14.203c1.891-0.23,3.727,2.09,3.953,3.98C180.143,68.133,178.916,70.828,177.025,71.055z"/>
</svg>
