<?xml version="1.0" encoding="utf-8"?>
<!-- Generator: Adobe Illustrator 15.0.0, SVG Export Plug-In . SVG Version: 6.00 Build 0)  -->
<!DOCTYPE svg PUBLIC "-//W3C//DTD SVG 1.1//EN" "http://www.w3.org/Graphics/SVG/1.1/DTD/svg11.dtd" [
	<!ENTITY st0 "opacity:0.3;fill-rule:evenodd;clip-rule:evenodd;fill:#BB5937;">
]>
<svg version="1.1" id="Layer_1" xmlns="http://www.w3.org/2000/svg" xmlns:xlink="http://www.w3.org/1999/xlink" x="0px" y="0px"
	 width="225px" height="225px" viewBox="0 0 225 225" style="enable-background:new 0 0 225 225;" xml:space="preserve">
<path style="&st0;" d="M112.486,0.023c-62.129,0-112.5,50.371-112.5,112.5s50.371,112.5,112.5,112.5
	c62.133,0,112.504-50.371,112.504-112.5S174.619,0.023,112.486,0.023z M130.428,118.555v12.031H94.264V118.59
	c-48.684,8.496-65.871,49.34-65.871,49.34l-5.625-10.406c0,0,21.75-39.797,71.496-47.996v-1.27H44.135
	c-0.883,1.844-2.73,3.141-4.914,3.141c-3.027,0-5.484-2.457-5.484-5.484s2.457-5.484,5.484-5.484c2.266,0,4.203,1.371,5.035,3.328
	h50.008v-9.156h36.164v9.156h49.59c0.832-1.957,2.773-3.328,5.035-3.328c3.023,0,5.484,2.457,5.484,5.484s-2.461,5.484-5.484,5.484
	c-2.18,0-4.035-1.297-4.914-3.141h-49.711v1.234c49.422,8.125,68.969,48.031,68.969,48.031l-5.625,10.406
	C193.771,167.93,178.803,126.973,130.428,118.555z M103.361,121.531h17.969v-17.875h-17.969V121.531z"/>
</svg>
