<?xml version="1.0" encoding="utf-8"?>
<!-- Generator: Adobe Illustrator 15.0.0, SVG Export Plug-In . SVG Version: 6.00 Build 0)  -->
<!DOCTYPE svg PUBLIC "-//W3C//DTD SVG 1.1//EN" "http://www.w3.org/Graphics/SVG/1.1/DTD/svg11.dtd" [
	<!ENTITY st0 "fill-rule:evenodd;clip-rule:evenodd;fill:#BB5937;">
	<!ENTITY st1 "opacity:0.3;">
]>
<svg version="1.1" id="Layer_1" xmlns="http://www.w3.org/2000/svg" xmlns:xlink="http://www.w3.org/1999/xlink" x="0px" y="0px"
	 width="225px" height="225px" viewBox="0 0 225 225" style="enable-background:new 0 0 225 225;" xml:space="preserve">
<g style="&st1;">
	<g>
		<path style="&st0;" d="M121.5,117h4.359v-9H121.5V117z M126,153h4.359v-9H126V153z M121.5,135h4.359v-9H121.5V135z M121.5,153
			h4.359v-9H121.5V153z M38.445,116.824h4.125c1.406,0,2.543-1.137,2.543-2.543v-3.609c0-1.406-1.137-2.539-2.543-2.539h-4.125
			c-1.406,0-2.547,1.133-2.547,2.539v3.609C35.898,115.688,37.039,116.824,38.445,116.824z M126,135h4.359v-9H126V135z M135,117
			h31.359v-9H135V117z M112.5,0C50.371,0,0,50.367,0,112.5C0,174.629,50.371,225,112.5,225S225,174.629,225,112.5
			C225,50.367,174.629,0,112.5,0z M108,125.797H31.598c-2.488,0-4.5-2.012-4.5-4.5V103.5c0-2.488,2.012-4.5,4.5-4.5H108V125.797z
			 M175.598,157.297c0,2.488-2.02,4.5-4.5,4.5h-54c-2.488,0-4.5-2.012-4.5-4.5v-31.5H112.5V99h63v33.609h0.098V157.297z
			 M193.594,125.797H180V99h13.594c2.484,0,4.504,2.012,4.504,4.5v17.797C198.098,123.785,196.078,125.797,193.594,125.797z
			 M126,117h4.359v-9H126V117z M135,153h31.359v-9H135V153z M135,135h31.359v-9H135V135z M51.945,116.824h4.125
			c1.402,0,2.543-1.137,2.543-2.543v-3.609c0-1.406-1.141-2.539-2.543-2.539h-4.125c-1.406,0-2.547,1.133-2.547,2.539v3.609
			C49.398,115.688,50.539,116.824,51.945,116.824z"/>
	</g>
</g>
</svg>
