<?xml version="1.0" encoding="utf-8"?>
<!-- Generator: Adobe Illustrator 15.0.0, SVG Export Plug-In . SVG Version: 6.00 Build 0)  -->
<!DOCTYPE svg PUBLIC "-//W3C//DTD SVG 1.1//EN" "http://www.w3.org/Graphics/SVG/1.1/DTD/svg11.dtd" [
	<!ENTITY st0 "fill-rule:evenodd;clip-rule:evenodd;fill:#BB5937;">
	<!ENTITY st1 "opacity:0.3;">
]>
<svg version="1.1" id="Layer_1" xmlns="http://www.w3.org/2000/svg" xmlns:xlink="http://www.w3.org/1999/xlink" x="0px" y="0px"
	 width="225px" height="225px" viewBox="0 0 225 225" style="enable-background:new 0 0 225 225;" xml:space="preserve">
<g style="&st1;">
	<g>
		<path style="&st0;" d="M112.434,0.023c-62.133,0-112.5,50.367-112.5,112.5c0,62.129,50.367,112.5,112.5,112.5
			c62.129,0,112.5-50.371,112.5-112.5C224.934,50.391,174.562,0.023,112.434,0.023z M144.027,171.023c0-0.035-0.01-0.067-0.01-0.102
			c-0.056,2.44-2.041,4.398-4.49,4.398h-54c-2.45,0-4.435-1.958-4.49-4.398c-0.001,0.034-0.01,0.066-0.01,0.102v-0.203
			c0,0.035,0.009,0.067,0.01,0.102c0.055-2.44,2.04-4.398,4.49-4.398h54c2.449,0,4.435,1.958,4.49,4.398
			c0-0.034,0.01-0.066,0.01-0.102V171.023z M94.246,157.523h36.141c0.227,0-1.59,4.016,4.641,8.797H89.324
			C94.594,163.367,94.527,157.523,94.246,157.523z M175.527,148.32c0,2.488-2.016,4.5-4.5,4.5h-117c-2.484,0-4.5-2.012-4.5-4.5
			V67.523c0-2.484,2.016-4.5,4.5-4.5h117c2.484,0,4.5,2.016,4.5,4.5V148.32z M164.086,72.055H60.895c-1.293,0-2.34,1.047-2.34,2.34
			v67.062c0,1.293,1.047,2.34,2.34,2.34h103.191c1.293,0,2.34-1.047,2.34-2.34V74.395C166.426,73.102,165.379,72.055,164.086,72.055
			z"/>
	</g>
</g>
</svg>
