<?xml version="1.0" encoding="utf-8"?>
<!-- Generator: Adobe Illustrator 15.0.0, SVG Export Plug-In . SVG Version: 6.00 Build 0)  -->
<!DOCTYPE svg PUBLIC "-//W3C//DTD SVG 1.1//EN" "http://www.w3.org/Graphics/SVG/1.1/DTD/svg11.dtd" [
	<!ENTITY st0 "fill:#BB5937;">
	<!ENTITY st1 "opacity:0.3;">
]>
<svg version="1.1" id="Layer_1" xmlns="http://www.w3.org/2000/svg" xmlns:xlink="http://www.w3.org/1999/xlink" x="0px" y="0px"
	 width="225px" height="225px" viewBox="0 0 225 225" style="enable-background:new 0 0 225 225;" xml:space="preserve">
<g style="&st1;">
	<g>
		<path style="&st0;" d="M112.98,31.738c-44.77,0-81.191,36.418-81.191,81.184c0,44.762,36.422,81.184,81.191,81.184
			c44.762,0,81.184-36.422,81.184-81.184C194.164,68.156,157.742,31.738,112.98,31.738z M39.984,112.922
			c0-10.582,2.273-20.629,6.32-29.707l34.82,95.395C56.773,166.781,39.984,141.812,39.984,112.922z M112.98,185.914
			c-7.168,0-14.082-1.051-20.625-2.969l21.902-63.641l22.434,61.469c0.148,0.359,0.332,0.695,0.523,1
			C129.629,184.445,121.477,185.914,112.98,185.914z M123.039,78.695c4.395-0.227,8.352-0.691,8.352-0.691
			c3.934-0.465,3.469-6.246-0.465-6.016c0,0-11.824,0.926-19.453,0.926c-7.172,0-19.227-0.926-19.227-0.926
			c-3.934-0.23-4.398,5.781-0.461,6.016c0,0,3.723,0.465,7.652,0.691l11.375,31.16l-15.977,47.91l-26.578-79.07
			c4.398-0.227,8.352-0.691,8.352-0.691c3.93-0.465,3.469-6.246-0.469-6.016c0,0-11.816,0.926-19.453,0.926
			c-1.367,0-2.98-0.031-4.695-0.086C65.043,53.016,87.477,39.93,112.98,39.93c19,0,36.301,7.262,49.289,19.164
			c-0.316-0.023-0.625-0.059-0.945-0.059c-7.172,0-12.262,6.242-12.262,12.953c0,6.016,3.473,11.105,7.172,17.121
			c2.777,4.859,6.016,11.102,6.016,20.129c0,6.246-2.402,13.496-5.555,23.594l-7.281,24.324L123.039,78.695z M149.672,176.008
			l22.297-64.457c4.164-10.414,5.547-18.738,5.547-26.145c0-2.684-0.176-5.18-0.484-7.504c5.695,10.398,8.938,22.328,8.938,35.02
			C185.969,139.848,171.375,163.359,149.672,176.008z M112.5,0C50.371,0,0,50.371,0,112.5S50.371,225,112.5,225
			S225,174.629,225,112.5S174.629,0,112.5,0z M112.98,198.008c-46.922,0-85.09-38.172-85.09-85.086s38.168-85.086,85.09-85.086
			c46.914,0,85.086,38.172,85.086,85.086S159.895,198.008,112.98,198.008z"/>
	</g>
</g>
</svg>
