<?xml version="1.0" encoding="utf-8"?>
<!-- Generator: Adobe Illustrator 15.0.0, SVG Export Plug-In . SVG Version: 6.00 Build 0)  -->
<!DOCTYPE svg PUBLIC "-//W3C//DTD SVG 1.1//EN" "http://www.w3.org/Graphics/SVG/1.1/DTD/svg11.dtd" [
	<!ENTITY st0 "opacity:0.5;fill-rule:evenodd;clip-rule:evenodd;fill:#444240;">
]>
<svg version="1.1" id="Layer_1" xmlns="http://www.w3.org/2000/svg" xmlns:xlink="http://www.w3.org/1999/xlink" x="0px" y="0px"
	 width="42px" height="42px" viewBox="0 0 42 42" style="enable-background:new 0 0 42 42;" xml:space="preserve">
<path style="&st0;" d="M21-0.041C9.38-0.041-0.041,9.38-0.041,21S9.38,42.041,21,42.041S42.041,32.62,42.041,21
	S32.62-0.041,21-0.041z M34.322,10.406c2.302,2.891,3.689,6.539,3.707,10.518c-4.442-1.168-8.44-1.172-11.965-0.479
	c-0.524-1.184-1.098-2.403-1.733-3.66C29.973,14.502,33.109,11.688,34.322,10.406z M21,3.967c4.279,0,8.182,1.591,11.174,4.197
	c-2.511,2.924-5.71,4.932-9.055,6.324c-1.763-3.214-3.902-6.58-6.49-9.934C18.026,4.184,19.486,3.967,21,3.967z M13.667,5.644
	c1.028,1.295,3.711,4.857,6.519,9.906c-7.011,2.18-13.893,2.016-15.805,1.912C5.494,12.238,8.967,7.894,13.667,5.644z M3.967,21
	c0-0.313,0.051-0.612,0.066-0.92c7.173,0.147,12.902-0.826,17.377-2.242c0.552,1.074,1.098,2.215,1.632,3.391
	c-8.444,2.769-13.585,9.262-14.835,10.992C5.576,29.223,3.967,25.303,3.967,21z M21,38.033c-3.761,0-7.225-1.233-10.044-3.298
	c4.422-6.156,9.036-9.365,13.212-10.896c1.579,3.876,2.93,8.174,3.697,12.741C25.763,37.509,23.444,38.033,21,38.033z M30.81,34.909
	c-0.318-1.646-1.32-6.113-3.659-11.911c4.855-0.982,8.8,0.092,10.63,0.774C37.023,28.36,34.456,32.334,30.81,34.909z"/>
</svg>
