<?xml version="1.0" encoding="utf-8"?>
<!-- Generator: Adobe Illustrator 15.0.0, SVG Export Plug-In . SVG Version: 6.00 Build 0)  -->
<!DOCTYPE svg PUBLIC "-//W3C//DTD SVG 1.1//EN" "http://www.w3.org/Graphics/SVG/1.1/DTD/svg11.dtd" [
	<!ENTITY st0 "opacity:0.5;fill:#444240;">
]>
<svg version="1.1" id="Layer_1" xmlns="http://www.w3.org/2000/svg" xmlns:xlink="http://www.w3.org/1999/xlink" x="0px" y="0px"
	 width="42px" height="42px" viewBox="0 0 42 42" style="enable-background:new 0 0 42 42;" xml:space="preserve">
<path style="&st0;" d="M13.66,23.746h1.266v4.642c0,0.812-0.455,1.429-1.364,1.429c-0.876,0-1.364-0.616-1.364-1.429v-14.12
	c0-0.747,0.487-1.363,1.332-1.363c0.908,0,1.363,0.584,1.363,1.332v3.732h2.629v-3.473c0-2.467-1.525-4.349-3.992-4.349
	c-2.468,0-4.188,1.914-4.188,4.349v13.568c0,2.728,1.591,4.352,3.733,4.352c1.168,0,2.175-0.521,2.662-1.527l0.455,1.201h1.526
	v-10.68H13.66V23.746z M19.705,32.089h2.857V10.47h-2.857V32.089z M21,0.026C9.425,0.026,0.042,9.41,0.042,20.984
	c0,11.574,9.384,20.959,20.958,20.959c11.574,0,20.959-9.385,20.959-20.959C41.959,9.41,32.574,0.026,21,0.026z M21,38.824
	c-9.853,0-17.84-7.988-17.84-17.84S11.147,3.145,21,3.145c9.852,0,17.84,7.988,17.84,17.84S30.852,38.824,21,38.824z M24.397,13.23
	h2.696v18.859h2.822V13.23h2.597v-2.76h-8.115V13.23z"/>
</svg>
