<?xml version="1.0" encoding="utf-8"?>
<!-- Generator: Adobe Illustrator 15.0.0, SVG Export Plug-In . SVG Version: 6.00 Build 0)  -->
<!DOCTYPE svg PUBLIC "-//W3C//DTD SVG 1.1//EN" "http://www.w3.org/Graphics/SVG/1.1/DTD/svg11.dtd" [
	<!ENTITY st0 "opacity:0.5;fill-rule:evenodd;clip-rule:evenodd;fill:#444240;">
]>
<svg version="1.1" id="Layer_1" xmlns="http://www.w3.org/2000/svg" xmlns:xlink="http://www.w3.org/1999/xlink" x="0px" y="0px"
	 width="42px" height="42px" viewBox="0 0 42 42" style="enable-background:new 0 0 42 42;" xml:space="preserve">
<path style="&st0;" d="M21-0.041C9.38-0.041-0.041,9.38-0.041,21c0,11.62,9.421,21.041,21.041,21.041S42.041,32.62,42.041,21
	C42.041,9.38,32.62-0.041,21-0.041z M34.202,21.559c-2.793,11.308-21.521,16.106-30.138,4.364c3.3,3.151,9.047,3.425,12.692-0.341
	c-2.137,0.313-3.692-1.781-1.066-2.914c-2.361,0.259-3.674-0.996-4.212-2.062c0.554-0.58,1.165-0.848,2.345-0.926
	c-2.585-0.61-3.54-1.875-3.833-3.408c0.718-0.172,1.615-0.319,2.106-0.253c-2.265-1.184-3.052-2.962-2.927-4.302
	c4.046,1.502,6.624,2.708,8.78,3.864c0.768,0.41,1.625,1.147,2.591,2.084c1.231-3.252,2.751-6.606,5.356-8.27
	c-0.044,0.378-0.247,0.728-0.514,1.016c0.74-0.67,1.699-1.132,2.675-1.266c-0.114,0.731-1.167,1.144-1.806,1.383
	c0.484-0.149,3.048-1.292,3.327-0.642c0.329,0.74-1.769,1.082-2.125,1.21c-0.267,0.088-0.534,0.188-0.797,0.294
	c3.249-0.323,6.351,2.355,7.255,5.681c0.063,0.238,0.129,0.504,0.188,0.782c1.188,0.442,3.341-0.021,4.033-0.447
	c-0.503,1.186-1.807,2.06-3.728,2.218c0.928,0.386,2.673,0.596,3.878,0.392C37.52,20.834,36.292,21.576,34.202,21.559z"/>
</svg>
