<?xml version="1.0" encoding="utf-8"?>
<!-- Generator: Adobe Illustrator 15.0.0, SVG Export Plug-In . SVG Version: 6.00 Build 0)  -->
<!DOCTYPE svg PUBLIC "-//W3C//DTD SVG 1.1//EN" "http://www.w3.org/Graphics/SVG/1.1/DTD/svg11.dtd" [
	<!ENTITY st0 "fill:url(#SVGID_1_);">
	<!ENTITY st1 "fill:url(#SVGID_2_);">
	<!ENTITY st2 "fill:url(#SVGID_3_);">
	<!ENTITY st3 "fill:url(#SVGID_4_);">
	<!ENTITY st4 "opacity:0.24;fill:url(#SVGID_5_);">
]>
<svg version="1.1" id="Layer_1" xmlns="http://www.w3.org/2000/svg" xmlns:xlink="http://www.w3.org/1999/xlink" x="0px" y="0px"
	 width="360px" height="558px" viewBox="0 0 360 558" style="enable-background:new 0 0 360 558;" xml:space="preserve">
<g>
	<linearGradient id="SVGID_1_" gradientUnits="userSpaceOnUse" x1="179.6602" y1="17.5386" x2="179.6602" y2="28.5499">
		<stop  offset="0" style="stop-color:#DBDCE1"/>
		<stop  offset="1" style="stop-color:#C9CBCC"/>
	</linearGradient>
	<path style="&st0;" d="M344.879,21H14.441c-1.69,0-3.062,1.371-3.062,3.062v450.872c0,1.691,1.371,3.062,3.062,3.062h330.438
		c1.691,0,3.062-1.371,3.062-3.062V24.062C347.941,22.371,346.57,21,344.879,21z M346.736,471.539H12.691v-438.5h334.045V471.539z"
		/>
	<linearGradient id="SVGID_2_" gradientUnits="userSpaceOnUse" x1="17.8979" y1="23.2549" x2="17.8979" y2="29.5115">
		<stop  offset="0" style="stop-color:#E2AC9D"/>
		<stop  offset="1" style="stop-color:#BB381A"/>
	</linearGradient>
	<circle style="&st1;" cx="17.898" cy="27.029" r="3"/>
	<linearGradient id="SVGID_3_" gradientUnits="userSpaceOnUse" x1="25.7319" y1="23.2549" x2="25.7319" y2="29.5115">
		<stop  offset="0" style="stop-color:#FCE9BB"/>
		<stop  offset="1" style="stop-color:#EBA400"/>
	</linearGradient>
	<circle style="&st2;" cx="25.732" cy="27.029" r="3"/>
	<linearGradient id="SVGID_4_" gradientUnits="userSpaceOnUse" x1="33.6421" y1="23.2549" x2="33.6421" y2="29.5115">
		<stop  offset="0" style="stop-color:#A5C690"/>
		<stop  offset="1" style="stop-color:#00632E"/>
	</linearGradient>
	<circle style="&st3;" cx="33.642" cy="27.029" r="3"/>
	<linearGradient id="SVGID_5_" gradientUnits="userSpaceOnUse" x1="179.7134" y1="32.6807" x2="179.7134" y2="35.5722">
		<stop  offset="0" style="stop-color:#1A171B"/>
		<stop  offset="0.0896" style="stop-color:#1A171B;stop-opacity:0.9104"/>
		<stop  offset="1" style="stop-color:#1A171B;stop-opacity:0"/>
	</linearGradient>
	<rect x="12.691" y="33.039" style="&st4;" width="334.045" height="2.773"/>
</g>
</svg>
